<svg width="237" height="178" viewBox="0 0 237 178" fill="none" xmlns="http://www.w3.org/2000/svg">
<rect width="122" height="177" fill="#22F55D"/>
<path d="M236.934 70C236.934 83.3031 232.023 96.1381 223.144 106.044C214.264 115.95 204.129 101 188.817 123.679C175.593 125.128 162.814 123.748 152 116C165.565 95 133.097 94.6828 130.216 81.6955C127.334 68.7081 129.349 55.1143 135.872 43.5204C142.395 31.9265 163 40 167 20.3334C179.596 16.0545 191.893 15.1119 204.129 20.3334C216.365 25.5549 226.242 35.1091 231.868 47.1642L182.934 70H236.934Z" fill="#FB2222"/>
<path d="M140.536 143.722L162.871 127V127.836L174.736 141.883L165.523 145.896L173.898 155.428L167.198 157.602L163.848 164.291L158.962 167.803L152.82 163.455L152.122 157.602L145.701 159.943L139 155.428L140.536 143.722Z" fill="#2041EB"/>
<path d="M168.734 177C147.739 175.127 176.83 170.868 194 168.973L188.695 177H168.734Z" fill="#2041EB"/>
<path d="M140.536 143.722L162.871 127V127.836L174.736 141.883L165.523 145.896L173.898 155.428L167.198 157.602L163.848 164.291L158.962 167.803L152.82 163.455L152.122 157.602L145.701 159.943L139 155.428L140.536 143.722Z" stroke="black"/>
<path d="M168.734 177C147.739 175.127 176.83 170.868 194 168.973L188.695 177H168.734Z" stroke="black"/>
</svg>
